<svg xmlns="http://www.w3.org/2000/svg" xmlns:xlink="http://www.w3.org/1999/xlink" width="64" height="64" class="icon" p-id="2943" t="1598797674990" version="1.1" viewBox="0 0 1024 1024"><defs><style type="text/css"/></defs><path fill="#D7C5B0" d="M634.88 283.84m17.6 0l52.48 0q17.6 0 17.6 17.6l0 52.48q0 17.6-17.6 17.6l-52.48 0q-17.6 0-17.6-17.6l0-52.48q0-17.6 17.6-17.6Z" p-id="2944"/><path fill="#D7C5B0" d="M336.48 248.8h17.6v105.28h-17.6zM371.68 248.8h17.6v105.28h-17.6z" p-id="2945"/><path fill="#D7C5B0" d="M512 73.28A438.72 438.72 0 1 0 950.72 512 438.72 438.72 0 0 0 512 73.28z m263.2 596.64a105.12 105.12 0 0 1-105.28 105.28H354.08a105.28 105.28 0 0 1-105.28-105.28V441.76h121.76a157.92 157.92 0 1 0 282.88 0h121.76zM389.12 512A122.88 122.88 0 1 1 512 634.88 122.88 122.88 0 0 1 389.12 512z m386.08-105.28h-145.44a158.08 158.08 0 0 0-235.52 0h-145.44v-87.68a70.4 70.4 0 0 1 52.64-68v103.04h17.6v-105.28h-11.04 5.28a32 32 0 0 1 5.76 0h385.92a70.24 70.24 0 0 1 70.24 70.24z" p-id="2946"/></svg>