<svg xmlns="http://www.w3.org/2000/svg" xmlns:xlink="http://www.w3.org/1999/xlink" width="64" height="64" class="icon" p-id="2643" t="1598797659029" version="1.1" viewBox="0 0 1024 1024"><defs><style type="text/css"/></defs><path fill="#5DD7FC" d="M512 73.28A438.72 438.72 0 1 0 950.72 512 438.72 438.72 0 0 0 512 73.28z m269.28 304c-16 14.56-22.4 22.08-22.4 22.08s5.76 113.28-54.08 200.64-136.8 139.04-248.8 150.08a315.36 315.36 0 0 1-185.12-34.4 327.52 327.52 0 0 0 80-14.72 451.68 451.68 0 0 0 76.32-43.36s-64-19.68-86.72-41.76a132.32 132.32 0 0 1-28.64-35.2h63.04S308.48 544 289.76 516.8a128 128 0 0 1-21.28-54.88l48 19.52s-39.84-54.72-45.6-97.44a110.72 110.72 0 0 1 7.36-65.6s20.48 38.56 104.8 81.12a361.28 361.28 0 0 0 153.44 40.16h2.24S512 345.6 595.2 304a116.32 116.32 0 0 1 140.8 28.48s14.56-4 25.44-8 26.56-11.2 26.56-11.2l-25.76 46.08 39.68-4.32a155.68 155.68 0 0 1-20.64 21.76z" p-id="2644"/></svg>